PathFileType	4	(X/Y/Z)	./resultDataOpenSim/trcMotMarkerGrf/sub10/qtm-02-01.trc
DataRate	CameraRate	NumFrames	NumMarkers	Units	OrigDataRate	OrigDataStartFrame	OrigNumFrames
250.000000	250.000000	7	24	m	250.000000	58	461
Frame#	Time	L.Toe.Tip			R.Toe.Tip			L.Ankle.Lat			R.Ankle.Lat			L.Ankle.Med			R.Ankle.Med			L.Heel			R.Heel			L.Knee.Lat			R.Knee.Lat			L.Knee.Med			R.Knee.Med			L.Thigh.Upper			R.Thigh.Upper			L.ASIS			R.ASIS			V.Sacral			L.Acromium			R.Acromium			C7			L.Elbow			R.Elbow			L.Wrist.Lat			R.Wrist.Lat
		X1	Y1	Z1	X2	Y2	Z2	X3	Y3	Z3	X4	Y4	Z4	X5	Y5	Z5	X6	Y6	Z6	X7	Y7	Z7	X8	Y8	Z8	X9	Y9	Z9	X10	Y10	Z10	X11	Y11	Z11	X12	Y12	Z12	X13	Y13	Z13	X14	Y14	Z14	X15	Y15	Z15	X16	Y16	Z16	X17	Y17	Z17	X18	Y18	Z18	X19	Y19	Z19	X20	Y20	Z20	X21	Y21	Z21	X22	Y22	Z22	X23	Y23	Z23	X24	Y24	Z24

58	0.228	-1.4843479	0.040213385	-0.17785493	-0.69105251	0.045369431	-0.0077775139	-1.517891	0.16627189	-0.21530453	-0.82737155	0.052311774	0.031678982	-1.4998933	0.16867082	-0.13406583	-0.81303539	0.083396826	-0.049812038	-1.5780489	0.20342627	-0.17098276	-0.87746746	0.027049216	-0.016570025	-1.225625	0.41891603	-0.2293794	-0.85633557	0.45352298	0.064116499	-1.2182111	0.38708142	-0.11358511	-0.85422044	0.46224555	-0.06376986	-1.0848722	0.77526358	-0.26654721	-0.99553173	0.84895062	0.11066329	-0.9990457	0.87721064	-0.21893338	-0.9512566	0.92357051	0.018963815	-1.1735711	0.91846009	-0.065857221	-1.0362316	1.3766571	-0.24807745	-1.0676158	1.3620694	0.077253145	-1.137728	1.3946579	-0.094962429	-1.0117197	1.0251183	-0.30891543	-1.2086953	1.0552776	0.12991359	-0.77683463	0.96672877	-0.23777738	-1.1764698	0.83760322	0.2287624
59	0.232	-1.4812962	0.041556982	-0.17788986	-0.68995949	0.044554727	-0.0073572894	-1.5101215	0.16884242	-0.21551642	-0.82673929	0.052338898	0.031535337	-1.4923683	0.17048259	-0.13411863	-0.81231533	0.083109146	-0.04998666	-1.569099	0.20797981	-0.170618	-0.87711773	0.027389114	-0.01685165	-1.2149201	0.41756009	-0.22917424	-0.85178936	0.45373034	0.064854356	-1.207715	0.3846699	-0.11335598	-0.85015328	0.46237428	-0.063161478	-1.0768165	0.77421925	-0.26518465	-0.98862391	0.85046199	0.11155156	-0.99167566	0.87708632	-0.21720156	-0.94471038	0.92460356	0.019955873	-1.1666941	0.91881852	-0.066731406	-1.0301007	1.3772064	-0.24696616	-1.0623326	1.3626164	0.078190563	-1.1317388	1.3948523	-0.094320631	-1.0069121	1.0255105	-0.30814295	-1.2022114	1.0554261	0.13027035	-0.77228203	0.96650892	-0.23691579	-1.1702213	0.83821166	0.23022285
60	0.236	-1.4780458	0.043101774	-0.17801353	-0.68905081	0.04380586	-0.0071729562	-1.5021755	0.17145324	-0.21571918	-0.82616299	0.052377919	0.031386259	-1.4846677	0.17233231	-0.13414622	-0.81170824	0.082822694	-0.05021345	-1.5601579	0.21244209	-0.17002285	-0.87681504	0.027728846	-0.017262443	-1.2040886	0.41612566	-0.22890231	-0.84715786	0.45370886	0.065537142	-1.1970065	0.38210157	-0.11312509	-0.84619765	0.4623649	-0.062580784	-1.0687905	0.77316632	-0.26384493	-0.98178464	0.85185549	0.11244575	-0.98438325	0.87695616	-0.21552875	-0.9381034	0.92558951	0.020904946	-1.1595315	0.91921371	-0.067153438	-1.0239672	1.3777349	-0.24588085	-1.0570171	1.3631521	0.079124763	-1.1257874	1.3950118	-0.093679566	-1.0021391	1.0259084	-0.30737157	-1.1956222	1.0555525	0.13076043	-0.76778115	0.96619415	-0.2360782	-1.1638214	0.83878226	0.23171521
61	0.24	-1.4746731	0.044740753	-0.17817111	-0.68826636	0.04312279	-0.0072050717	-1.4939818	0.17410077	-0.2159114	-0.8255942	0.052411678	0.031213322	-1.4766878	0.17416826	-0.13419265	-0.8111993	0.082538979	-0.05050523	-1.5508366	0.21682448	-0.16927656	-0.87654268	0.028028796	-0.01765058	-1.1931567	0.4146398	-0.22856507	-0.84253366	0.45347418	0.06610435	-1.1858834	0.37943799	-0.11296064	-0.84241905	0.46220056	-0.06209195	-1.0607955	0.77211898	-0.26252826	-0.97501461	0.85311478	0.11333837	-0.97717287	0.87682434	-0.21393383	-0.93134829	0.926551	0.021828836	-1.1520074	0.91965928	-0.066787714	-1.017786	1.3782409	-0.24482004	-1.0516141	1.3636774	0.080041795	-1.1198839	1.3951441	-0.093043015	-0.99739571	1.0262944	-0.30659609	-1.188952	1.0556575	0.13136791	-0.76333597	0.96579253	-0.23528027	-1.1571097	0.83930825	0.23328007
62	0.244	-1.4713163	0.046370381	-0.17825219	-0.68754224	0.042499821	-0.0073322285	-1.4855	0.17678554	-0.21607822	-0.82502184	0.052427891	0.030996782	-1.4683219	0.17598533	-0.13427085	-0.81074624	0.082262698	-0.050850686	-1.5406191	0.22122148	-0.16877728	-0.87629116	0.02825985	-0.017904483	-1.182154	0.41313208	-0.22817741	-0.83806236	0.45312569	0.066564315	-1.1743578	0.37673422	-0.11286714	-0.83877569	0.46189388	-0.061719558	-1.0528288	0.77110944	-0.26125436	-0.96830274	0.85423473	0.11422616	-0.97004774	0.87669629	-0.21243313	-0.92457276	0.92746304	0.022707224	-1.1442621	0.92018924	-0.065654543	-1.0115039	1.3787268	-0.24378761	-1.0461179	1.3641946	0.080933581	-1.1140304	1.3952643	-0.092416218	-0.99267449	1.0266678	-0.30581475	-1.1822536	1.0557478	0.13202214	-0.75896882	0.9653017	-0.23453333	-1.1500484	0.83979637	0.23489107
63	0.248	-1.4680938	0.047922199	-0.17815792	-0.68685624	0.04193111	-0.0074349142	-1.4767022	0.17950087	-0.21620609	-0.82447652	0.052417486	0.030737037	-1.4595474	0.17780696	-0.13435386	-0.81030946	0.081991061	-0.051214635	-1.5291532	0.2257259	-0.16904711	-0.87606451	0.028428736	-0.018033895	-1.1711086	0.41162925	-0.22776565	-0.83379919	0.45276469	0.066945309	-1.1625691	0.37405439	-0.11281963	-0.83514797	0.46149028	-0.061448568	-1.0448869	0.77017472	-0.26005062	-0.96161198	0.85522919	0.11511866	-0.96299964	0.87658375	-0.21102986	-0.91793789	0.92828154	0.023517206	-1.1366291	0.92085666	-0.064128648	-1.0051251	1.3792007	-0.24279918	-1.040545	1.3647076	0.081796513	-1.1082132	1.3953968	-0.091799403	-0.98797487	1.0270497	-0.30504171	-1.1755638	1.055836	0.13266919	-0.75472527	0.96470693	-0.23383978	-1.1428049	0.84025958	0.23644531
64	0.252	-1.4649085	0.049414246	-0.17790938	-0.68621976	0.041426818	-0.0074670458	-1.4675856	0.18221569	-0.2162922	-0.82400532	0.052380094	0.030461823	-1.4504153	0.17967084	-0.13440707	-0.80987644	0.081718316	-0.051564754	-1.5166054	0.23028586	-0.17016857	-0.87587429	0.028554758	-0.018100959	-1.1600372	0.41015403	-0.22735855	-0.82972253	0.45245183	0.06726914	-1.150657	0.37147234	-0.11279071	-0.83146697	0.4610409	-0.061249653	-1.036973	0.7693379	-0.25893451	-0.954878	0.85611934	0.11603119	-0.95601985	0.87650415	-0.20971803	-0.91147829	0.92898667	0.024260926	-1.1295547	0.92168521	-0.062834367	-0.99873087	1.379673	-0.24187955	-1.0348823	1.3652181	0.082625452	-1.102408	1.3955719	-0.091186885	-0.9833042	1.0274636	-0.30430081	-1.1688914	1.0559325	0.1332914	-0.75063927	0.96399445	-0.23319533	-1.1355675	0.84070613	0.23785457
